<?xml version="1.0" encoding="utf-8"?>
<!-- Generator: Adobe Illustrator 26.0.2, SVG Export Plug-In . SVG Version: 6.00 Build 0)  -->
<svg version="1.2" baseProfile="tiny" id="Layer_1" xmlns="http://www.w3.org/2000/svg" xmlns:xlink="http://www.w3.org/1999/xlink"
	 x="0px" y="0px" viewBox="0 0 32 32" overflow="visible" xml:space="preserve">
<path fill="#FFFFFF" d="M30,19.7c0.1-0.1,0.1-0.2,0.1-0.3c0-0.1-0.1-0.3-0.1-0.5c-0.1-0.2-0.2-0.4-0.2-0.5c-0.1-0.2-0.1-0.4-0.2-0.6
	c-0.2,0-0.2-0.1-0.3-0.2c-0.2-0.3-0.3-0.5-0.6-0.7c-0.2-0.2-0.4-0.4-0.7-0.6c-0.2-0.2-0.5-0.4-0.7-0.6c-0.2-0.2-0.4-0.4-0.6-0.6
	c0.3-0.3,0.6-0.7,0.9-1c0.3-0.3,0.6-0.6,0.9-1c0.3-0.3,0.5-0.7,0.7-1.1c0.2-0.4,0.3-0.9,0.3-1.4c0-0.1-0.1-0.1-0.2-0.1
	c-0.1,0-0.1-0.1-0.1-0.2c0-0.2-0.1-0.4-0.2-0.6c-0.1-0.2-0.3-0.3-0.4-0.5c-0.2-0.2-0.4-0.3-0.5-0.4c-0.2-0.1-0.3-0.3-0.5-0.5
	c-0.1,0-0.3,0-0.4-0.1c-0.1-0.1-0.2-0.2-0.4-0.3c-0.1-0.1-0.3-0.2-0.4-0.3s-0.3-0.1-0.5-0.1c-0.1,0-0.1,0.1,0,0.1
	c0.1,0.1,0.1,0.1,0,0.1c-0.2-0.1-0.4-0.2-0.6-0.2c-0.2,0-0.3-0.1-0.4-0.2c-0.1,0-0.2,0.1-0.4,0.1c-0.2,0-0.3,0-0.5,0s-0.3,0-0.5,0
	c-0.2,0-0.3,0-0.4,0.1c-0.8,0-1.6,0-2.3,0.2c-0.7,0.2-1.3,0.3-1.9,0.5c-0.1-0.1-0.1-0.1-0.1,0c0,0,0,0-0.1,0
	c-0.4,0.1-0.9,0.2-1.4,0.3c-0.3,0.1-0.6,0.2-0.9,0.3c-0.1-0.2-0.2-0.3-0.3-0.5c-0.1-0.2-0.2-0.3-0.2-0.5c-1-0.3-1.9-0.4-2.8-0.4
	c-0.9,0.1-1.8,0.2-2.6,0.4S8.7,8.3,7.9,8.6C7.1,8.9,6.3,9.1,5.5,9.2c0,0.1,0,0.1,0,0.1c0.1,0,0.1,0,0.1,0.1c-0.3,0.1-0.7,0.2-1,0.3
	c-0.4,0.1-0.7,0.3-1,0.5c-0.3,0.2-0.6,0.4-0.9,0.7c-0.3,0.3-0.5,0.6-0.6,1c0,0.2,0,0.4,0,0.6c0,0.1-0.1,0.3-0.1,0.6
	C2,13.2,2,13.4,2,13.5c0,0.1,0,0.3-0.1,0.6c0.1,0.2,0.2,0.3,0.3,0.4c0.1,0.1,0.2,0.3,0.3,0.4c0.2,0,0.3,0,0.3,0.1
	c0,0.1,0.1,0.1,0.1,0.2c0.5,0.2,1.1,0.4,1.6,0.5s1.2,0.2,1.8,0.2C6.7,15.9,6.9,16,7.1,16c0.2,0.1,0.4,0,0.5-0.1
	c0.3,0.2,0.7,0.3,1.1,0.5c0.4,0.1,0.9,0.3,1.2,0.5c0,0,0.1,0,0.1,0s0.1,0,0.1,0c0,0.1,0,0.1,0,0.1c0,0,0.1,0.1,0.1,0.1
	c0,0,0.1,0,0.1,0.1c0,0,0,0.1,0,0.1c0,0.2-0.1,0.3-0.2,0.4S10,18,9.9,18.1c-0.1,0.1-0.2,0.2-0.3,0.3s-0.2,0.2-0.2,0.4
	C9,19,8.5,19.3,8.1,19.5S7.2,20,6.7,20.2c-0.5,0.2-1,0.4-1.6,0.5c-0.6,0.1-1.1,0.2-1.8,0.1C3.1,20.9,3,21.1,3,21.2
	c0,0.2-0.1,0.4,0,0.6c0,0.2,0,0.4,0.1,0.6c0,0.2,0,0.3-0.1,0.5c0,0,0,0.1,0,0.1C3,23,3,23,3.1,23c0,0,0.1,0,0.1,0.1
	c0,0,0,0.1-0.1,0.1c0,0,0,0.1,0,0.1c0,0,0,0.1,0,0.1c0.1,0,0.1,0,0.1,0.1s0,0.1,0.1,0.1c0.1,0.2,0.1,0.3,0.2,0.4
	c0.1,0.1,0.2,0.2,0.3,0.4c0.2,0,0.4,0,0.6,0c0.2,0,0.4,0,0.6,0s0.4,0,0.6,0c0.2,0,0.3-0.1,0.5-0.2c0,0.1,0,0.2,0.1,0.1
	c0.1,0,0.2,0,0.2,0c0.7-0.2,1.3-0.4,2-0.7c0.7-0.3,1.3-0.6,1.9-1s1.2-0.9,1.6-1.4c0.5-0.5,0.9-1.1,1.1-1.8c0.2-0.3,0.2-0.7,0.2-1.1
	s0-0.8-0.1-1.2c-0.1-0.3-0.3-0.6-0.5-0.8c-0.2-0.2-0.4-0.5-0.4-0.7c-0.1-0.1-0.2-0.1-0.2-0.1c-0.1,0-0.1,0-0.2-0.2
	c0-0.2,0-0.4-0.1-0.6c-0.1-0.2-0.2-0.4-0.3-0.6c-0.1-0.2-0.3-0.3-0.5-0.5s-0.4-0.2-0.7-0.2c0-0.2-0.1-0.3-0.3-0.4
	c-0.2-0.1-0.3-0.1-0.5-0.2c-0.2,0-0.4-0.1-0.6-0.1c-0.2-0.1-0.3-0.1-0.4-0.3c0-0.1,0-0.2,0-0.2c0,0-0.1-0.1,0-0.2
	c0.3,0,0.6-0.1,0.9-0.1c0.3-0.1,0.5-0.2,0.7-0.3c0.2,0,0.4,0,0.7-0.1c0.2-0.1,0.5-0.1,0.7-0.2s0.5-0.1,0.7-0.1
	c0.2,0,0.4,0.1,0.6,0.3c0.5-0.1,1.2-0.1,1.8-0.2c0.1,0,0.2,0,0.4,0c0.2,0.3,0.4,0.5,0.6,0.8c0.4,0.5,0.9,0.8,1.6,1.1
	c0.2-0.1,0.4-0.1,0.6-0.1c0.2,0,0.4,0,0.5-0.2c0-0.3,0.1-0.5,0.2-0.6s0.3-0.2,0.6-0.3c0.1,0.3,0.1,0.6,0,0.8s-0.1,0.4-0.2,0.6
	c-0.1,0.2-0.2,0.4-0.2,0.6c-0.1,0.2-0.1,0.5-0.1,0.7c-0.2,0.4-0.3,0.8-0.4,1.1c-0.1,0.3-0.1,0.6-0.2,0.8s-0.1,0.5-0.2,0.8
	s-0.2,0.6-0.5,1c0,0.1,0,0.1,0,0.2c0,0,0.1,0.1,0.1,0.1c-0.1,0.1-0.2,0.2-0.3,0.4s-0.1,0.3-0.1,0.5c0,0.2-0.1,0.3-0.1,0.5
	c0,0.2-0.1,0.3-0.3,0.4c0.1,0.2,0.2,0.4,0.2,0.6c-0.1,0-0.2,0.1-0.2,0.2c0,0.1-0.1,0.2-0.1,0.3c0,0.1,0,0.2,0,0.3c0,0.1,0,0.2,0,0.3
	c0.1,0.2,0.2,0.5,0.3,0.6c0.1,0.2,0.2,0.3,0.1,0.5c0.1,0,0.2,0.1,0.3,0.3c0.1,0.2,0.1,0.3,0.1,0.3c0.2,0,0.3,0.1,0.3,0.1
	s0.1,0.1,0.2,0.2c0.1,0.1,0.1,0.1,0.2,0.2c0.1,0.1,0.2,0.1,0.3,0.2c0.1-0.1,0.2-0.1,0.3-0.1c0.1,0,0.3,0,0.5,0.1
	c0.1-0.1,0.2-0.2,0.3-0.3s0.2-0.3,0.3-0.4c0.2,0.1,0.4,0.2,0.6,0.4c0.2,0.1,0.4,0.2,0.7,0.3c0.2,0.1,0.4,0.1,0.5,0.1
	c0.1,0,0.2-0.1,0.2-0.3c0.1,0,0.1,0.1,0.1,0.1s0,0.1,0.1,0.1c0.2,0,0.3-0.1,0.6-0.1c0.2,0,0.4-0.1,0.6-0.1c0.2,0,0.3-0.1,0.5-0.2
	c0.1-0.1,0.3-0.2,0.3-0.3c0.9-0.1,1.8-0.4,2.7-0.8c0.9-0.4,1.7-0.8,2.5-1.3c0.2-0.2,0.3-0.3,0.4-0.4c0.1-0.1,0.1-0.1,0.2-0.2
	c0.1-0.1,0.2-0.2,0.3-0.4c0.1-0.2,0.3-0.5,0.7-0.9c0-0.1,0-0.2,0-0.3C30.1,19.8,30.1,19.7,30,19.7z M22.4,10.9
	c0.9-0.2,1.8-0.3,2.8-0.2c-0.4,0.5-0.9,1-1.5,1.5s-1.2,0.8-1.9,1.1c-0.2-0.3-0.4-0.6-0.7-0.8s-0.6-0.4-0.9-0.7
	C20.8,11.4,21.5,11.1,22.4,10.9z M26.7,18.2c-0.1,0.1-0.2,0.2-0.4,0.3c-0.2,0.1-0.3,0.2-0.5,0.3s-0.2,0.2-0.3,0.4
	c-0.4,0.2-0.9,0.3-1.3,0.5c-0.4,0.2-0.8,0.4-1.2,0.6s-0.9,0.4-1.3,0.5c-0.5,0.2-0.9,0.3-1.5,0.3c0.2-0.6,0.4-1.2,0.6-1.8
	s0.4-1.2,0.6-1.7c0.4-0.1,0.8-0.2,1.2-0.3c0.4-0.1,0.8-0.2,1.2-0.3c0.4-0.1,0.9-0.1,1.4,0c0.5,0.1,1,0.2,1.6,0.6
	C26.8,17.9,26.8,18.1,26.7,18.2z"/>
</svg>
