<svg xmlns="http://www.w3.org/2000/svg" viewBox="0 0 28.31 17.49"><defs><style>.cls-1{fill:none;}</style></defs><g id="Layer_2" data-name="Layer 2"><g id="Layer_1-2" data-name="Layer 1"><path class="cls-1" d="M28.12,12.41a.42.42,0,0,0,.11-.34,1.74,1.74,0,0,0-.14-.47q-.11-.26-.24-.54a4.5,4.5,0,0,1-.19-.55.37.37,0,0,1-.29-.18,2.87,2.87,0,0,0-.56-.69,6.6,6.6,0,0,0-.69-.58l-.71-.55a4.54,4.54,0,0,1-.62-.62,7.5,7.5,0,0,1,.9-1c.32-.31.62-.63.91-1a5,5,0,0,0,.71-1.12,3.14,3.14,0,0,0,.26-1.45.21.21,0,0,0-.16-.14q-.11,0-.09-.15a1.06,1.06,0,0,0-.17-.61,2,2,0,0,0-.43-.5c-.17-.15-.35-.3-.54-.44a2.38,2.38,0,0,1-.48-.47A.6.6,0,0,1,25.32,1L25,.64a3.19,3.19,0,0,0-.42-.3A1,1,0,0,0,24,.2c-.07,0-.08.08,0,.15s.06.09,0,.08a1.22,1.22,0,0,0-.56-.24A.59.59,0,0,1,23,0a1.41,1.41,0,0,1-.39.08H21.7a.9.9,0,0,0-.39.1,8.34,8.34,0,0,0-2.26.17c-.71.16-1.33.32-1.87.49-.08-.06-.12-.08-.12,0s0,0-.13,0c-.44.09-.89.2-1.36.32a7.32,7.32,0,0,0-.93.33L14.33,1a1.92,1.92,0,0,1-.25-.52A8.7,8.7,0,0,0,11.23.12,14.53,14.53,0,0,0,8.59.54c-.86.23-1.7.48-2.52.77A16.21,16.21,0,0,1,3.62,2c0,.07,0,.11,0,.11a.08.08,0,0,1,.09.09q-.46.13-1,.33a6.91,6.91,0,0,0-1,.47,4.64,4.64,0,0,0-.91.69,2.39,2.39,0,0,0-.62,1,1.67,1.67,0,0,1,0,.56c0,.14-.09.32-.15.57a.7.7,0,0,1,.16.46c0,.14,0,.33-.09.55a2.12,2.12,0,0,0,.3.44,4.71,4.71,0,0,1,.33.42c.17,0,.27,0,.32.06A1.08,1.08,0,0,1,1.13,8a7.16,7.16,0,0,0,1.64.47,16.17,16.17,0,0,0,1.79.18q.39.09.66.18a.6.6,0,0,0,.54-.09,5.32,5.32,0,0,0,1.11.45,8,8,0,0,1,1.24.5l.1,0,.13.05a.17.17,0,0,0,0,.13.39.39,0,0,0,.1.08s0,.05.06.08a.17.17,0,0,1,0,.14,1.17,1.17,0,0,1-.2.42c-.09.11-.19.21-.29.31l-.31.31a.83.83,0,0,0-.21.38c-.43.21-.86.44-1.3.69s-.92.48-1.4.69a8.62,8.62,0,0,1-1.56.5,5.68,5.68,0,0,1-1.76.09.73.73,0,0,0-.38.44,1.66,1.66,0,0,0,0,.55l.06.58a.74.74,0,0,1-.08.48.11.11,0,0,0,0,.12l.11.08a.14.14,0,0,1,.07.06s0,.06-.08.1l-.05.1a.39.39,0,0,0,0,.13c.08,0,.11,0,.1.13a.11.11,0,0,0,.1.14,1.37,1.37,0,0,0,.24.43q.15.18.33.36a3,3,0,0,1,.6,0l.61,0a3.28,3.28,0,0,0,.56,0A1,1,0,0,0,4.14,17c0,.1,0,.15.05.13a.41.41,0,0,1,.22,0,17.5,17.5,0,0,0,2-.73,13.24,13.24,0,0,0,1.93-1A8.81,8.81,0,0,0,10,14a5.84,5.84,0,0,0,1.11-1.79,2.32,2.32,0,0,0,.19-1.06c0-.36,0-.77-.08-1.22a2.85,2.85,0,0,0-.51-.8,1.82,1.82,0,0,1-.42-.72c-.09-.1-.17-.14-.23-.11s-.14,0-.2-.18a1.37,1.37,0,0,0-.06-.55A1.69,1.69,0,0,0,9.49,7,1.84,1.84,0,0,0,9,6.5a1.38,1.38,0,0,0-.7-.22A.56.56,0,0,0,8,5.89a1.63,1.63,0,0,0-.51-.19l-.55-.15a.81.81,0,0,1-.43-.28.17.17,0,0,0,0-.19s-.06-.08,0-.15A7.39,7.39,0,0,0,7.3,4.8,1.34,1.34,0,0,0,8,4.5a1.57,1.57,0,0,0,.67-.06l.74-.2a3.1,3.1,0,0,1,.71-.12.77.77,0,0,1,.59.26q.81-.09,1.83-.15c.12,0,.23,0,.35,0a5.53,5.53,0,0,0,.56.76A4.22,4.22,0,0,0,15,6.08,1.49,1.49,0,0,1,15.55,6a.71.71,0,0,0,.52-.17,1.26,1.26,0,0,1,.21-.61A.79.79,0,0,1,16.84,5a2.13,2.13,0,0,1,0,.79,4,4,0,0,1-.19.64c-.09.21-.16.41-.24.63a1.66,1.66,0,0,0-.09.72A6.74,6.74,0,0,0,16,8.81c-.06.29-.12.56-.17.81a6.35,6.35,0,0,1-.22.76,4.92,4.92,0,0,1-.47,1,.21.21,0,0,0,0,.15l.09.12A.87.87,0,0,0,15,12a4,4,0,0,0-.15.49c0,.16-.08.33-.12.48a.84.84,0,0,1-.27.4,1.47,1.47,0,0,1,.18.56.4.4,0,0,0-.23.16,1.17,1.17,0,0,0-.1.26,1.65,1.65,0,0,0,0,.32c0,.11,0,.22,0,.33a2.26,2.26,0,0,0,.32.64c.13.19.16.34.09.46a.5.5,0,0,1,.32.29.49.49,0,0,1,.06.35,1.12,1.12,0,0,1,.34.14l.21.18.18.21a.85.85,0,0,0,.27.19.3.3,0,0,1,.28-.11l.46.07a1.15,1.15,0,0,0,.35-.32,4.07,4.07,0,0,0,.29-.43,6.52,6.52,0,0,0,.58.38,4,4,0,0,0,.66.32,1.47,1.47,0,0,0,.53.1c.14,0,.22-.1.24-.28a.18.18,0,0,1,.12.15.18.18,0,0,0,.13.14l.55-.09.58-.11a2.68,2.68,0,0,0,.48-.17.89.89,0,0,0,.33-.26,10.7,10.7,0,0,0,2.7-.78,23.62,23.62,0,0,0,2.5-1.3l.41-.36.18-.21.27-.36c.12-.16.34-.45.67-.85a.8.8,0,0,0,0-.31A.34.34,0,0,0,28.12,12.41ZM20.59,3.62a11,11,0,0,1,2.76-.25,10.82,10.82,0,0,1-1.47,1.48A7.2,7.2,0,0,1,20,5.94a1.94,1.94,0,0,0-.74-.79,6.49,6.49,0,0,1-.93-.68A7.24,7.24,0,0,1,20.59,3.62Zm4.22,7.32a1.77,1.77,0,0,1-.38.33l-.45.3a.71.71,0,0,0-.29.43c-.44.17-.86.34-1.27.53l-1.24.57a12.18,12.18,0,0,1-1.31.5,7.34,7.34,0,0,1-1.5.34c.2-.58.4-1.19.61-1.8s.42-1.19.61-1.7a8.06,8.06,0,0,0,1.18-.27A9.21,9.21,0,0,1,22,9.89a4.75,4.75,0,0,1,1.36,0,4.39,4.39,0,0,1,1.57.56A.59.59,0,0,1,24.81,10.94Z"/></g></g></svg>